# xmcd
#
# Track frame offsets: 
#        150
#        24560
#        51532
#        67415
#        81097
#        105040
#        133750
#        158007
#        177977
#        190277
#
# Disc length: 2790 seconds
#
# Revision: 1
# Processed by: cddbd v1.5.2PL0 Copyright (c) Steve Scherf et al.
# Submitted via: ExactAudioCopy v0.99pb5
#
DISCID=870ae40a
DTITLE=Across Tundras - Lonesome Wails From The Weeping Willow
DYEAR=2008
DGENRE=Psychedelic
TTITLE0=Before The Rooster Crows
TTITLE1=Blackbird Sanguine Sky
TTITLE2=Holes 2: High River Dirge
TTITLE3=The Wall Of Breathless Sleep
TTITLE4=Lowlands Low and Thunderstorm Wake
TTITLE5=Last Breath Over Venom Falls
TTITLE6=Massive Echo Mountain
TTITLE7=Cold Earth Death Scrolls
TTITLE8=Lonesome Whistle Blues
TTITLE9=Requiem For Luke The Drifter
EXTD=
EXTT0=
EXTT1=
EXTT2=
EXTT3=
EXTT4=
EXTT5=
EXTT6=
EXTT7=
EXTT8=
EXTT9=
PLAYORDER=
